<svg xmlns="http://www.w3.org/2000/svg" viewBox="0 0 277.81 266.28"><title>자산 14</title><g id="레이어_2" data-name="레이어 2"><g id="레이어_1-2" data-name="레이어 1"><path d="M138.91,214.76a93.52,93.52,0,1,1,88.91-64.63A93.42,93.42,0,0,1,138.91,214.76Z"/><path d="M138.88,28.21A93,93,0,1,1,84.75,45.62a92.92,92.92,0,0,1,54.13-17.41h0m0-1a94.07,94.07,0,1,0,29.07,4.63,94,94,0,0,0-29.07-4.63Z"/><path d="M257.3,139.2v2A18.5,18.5,0,1,1,239.71,154,18.48,18.48,0,0,1,257.3,141.2v-2m0,0a20.52,20.52,0,1,0,6.34,1,20.51,20.51,0,0,0-6.34-1Z"/><path d="M212.11,0V2a18.5,18.5,0,0,1,14.95,29.38,18.57,18.57,0,0,1-15,7.63A18.5,18.5,0,0,1,197.12,9.66a18.57,18.57,0,0,1,15-7.63V0m0,0a20.5,20.5,0,1,0,12,3.92,20.47,20.47,0,0,0-12-3.92Z"/><path d="M65.76,2h0a18.57,18.57,0,0,1,15,7.63A18.5,18.5,0,0,1,65.8,39,18.5,18.5,0,0,1,54.91,5.53,18.36,18.36,0,0,1,65.76,2m0-2a20.5,20.5,0,1,0,16.6,8.45A20.41,20.41,0,0,0,65.76,0Z"/><path d="M20.51,141.23h0a18.53,18.53,0,1,1-5.72.91,18.45,18.45,0,0,1,5.72-.91m0-2A20.5,20.5,0,1,0,40,153.4a20.49,20.49,0,0,0-19.49-14.17Z"/><path d="M138.93,227.28a18.5,18.5,0,1,1-18.5,18.5,18.52,18.52,0,0,1,18.5-18.5m0-2a20.5,20.5,0,1,0,20.5,20.5,20.5,20.5,0,0,0-20.5-20.5Z"/></g></g></svg>