<svg xmlns="http://www.w3.org/2000/svg" viewBox="0 0 277.81 266.28"><title>자산 4</title><g id="레이어_2" data-name="레이어 2"><g id="레이어_1-2" data-name="레이어 1"><path d="M138.91,214.76a93.52,93.52,0,1,1,88.91-64.63A93.44,93.44,0,0,1,138.91,214.76Z"/><path d="M138.88,28.21A93,93,0,1,1,84.75,45.62a92.92,92.92,0,0,1,54.13-17.41h0m0-1a94.07,94.07,0,1,0,29.07,4.63,94,94,0,0,0-29.07-4.63Z"/><path d="M257.3,179.71a20,20,0,1,1,19-13.82A20,20,0,0,1,257.3,179.71Z"/><path d="M257.3,139.2v1a19.5,19.5,0,1,1-18.54,13.48A19.48,19.48,0,0,1,257.3,140.2v-1m0,0a20.52,20.52,0,1,0,6.34,1,20.51,20.51,0,0,0-6.34-1Z"/><path d="M212.07,40.54A20,20,0,0,1,195.91,8.78,20.08,20.08,0,0,1,212.11.53a20,20,0,0,1,16.16,31.76A20.08,20.08,0,0,1,212.07,40.54Z"/><path d="M212.11,0V1a19.5,19.5,0,0,1,15.76,31,19.57,19.57,0,0,1-15.79,8,19.5,19.5,0,0,1-15.76-31,19.58,19.58,0,0,1,15.79-8V0m0,0a20.5,20.5,0,1,0,12,3.92,20.47,20.47,0,0,0-12-3.92Z"/><path d="M65.8,40.5A20,20,0,0,1,54,4.32,19.85,19.85,0,0,1,65.76.5,20,20,0,0,1,77.54,36.68,19.85,19.85,0,0,1,65.8,40.5Z"/><path d="M65.76,1h0A19.5,19.5,0,0,1,77.24,36.28,19.35,19.35,0,0,1,65.8,40,19.5,19.5,0,0,1,54.32,4.73,19.36,19.36,0,0,1,65.76,1m0-1a20.5,20.5,0,1,0,16.6,8.45A20.41,20.41,0,0,0,65.76,0Z"/><path d="M20.5,179.74a20,20,0,1,1,6.18-1A19.95,19.95,0,0,1,20.5,179.74Z"/><path d="M20.51,140.23h0a19.53,19.53,0,1,1-6,1,19.45,19.45,0,0,1,6-1m0-1A20.5,20.5,0,1,0,40,153.4a20.49,20.49,0,0,0-19.49-14.17Z"/><path d="M138.93,265.78a20,20,0,1,1,20-20A20,20,0,0,1,138.93,265.78Z"/><path d="M138.93,226.28a19.5,19.5,0,1,1-19.5,19.5,19.52,19.52,0,0,1,19.5-19.5m0-1a20.5,20.5,0,1,0,20.5,20.5,20.5,20.5,0,0,0-20.5-20.5Z"/></g></g></svg>